<svg id="logo" xmlns="http://www.w3.org/2000/svg" width="149" height="42.722" viewBox="0 0 149 42.722">
  <g id="Group_338" data-name="Group 338" transform="translate(55.511)">
    <path id="Path_1767" data-name="Path 1767" d="M48.848,28.32H63.667l-.208.232c-.11.122-.208.232-.269.318s-.122.147-.147.171H45.4V.1h3.46V28.32Z" transform="translate(-45.4 0.022)" fill="#ffffff"/>
    <path id="Path_1768" data-name="Path 1768" d="M78.678,0h1.553L70.962,14.868a1.073,1.073,0,0,0-.208.672l-.037,13.523h-3.46l.086-11.286a1.154,1.154,0,0,0-.208-.672L57.06.88,56.51,0h4.169l8.926,14.575L77.944,1.223,78.666,0Z" transform="translate(-42.926)" fill="#ffffff"/>
    <path id="Path_1769" data-name="Path 1769" d="M108.74,28.787a12.388,12.388,0,0,0,7.752-3.032l.721.587a14.769,14.769,0,0,1-3.155,2.1,13.449,13.449,0,0,1-5.27,1.308c-.257.024-.5.037-.758.037a23.1,23.1,0,0,1-3.375-.232,24.45,24.45,0,0,1-2.861-.587A13.039,13.039,0,0,1,99.349,28c-.795-.4-1.455-.783-2.017-1.137a9.42,9.42,0,0,1-1.687-1.394c-.562-.575-1.015-1.052-1.369-1.431a12.318,12.318,0,0,1-1.162-1.516c-.416-.636-.721-1.1-.9-1.406s-.44-.758-.783-1.345c-.624-1.1-1.431-2.824-2.445-5.184l-.844-2.066-5.392,5.722-.208.416.037,10.528H79.04V.151h3.5l.037,16.091.929-.929.5-.5L97.576.151h2.017L90.582,9.835a.724.724,0,0,0-.122.844q1.852,4.548,3.326,7.581a26.863,26.863,0,0,0,2.36,4.084,16.524,16.524,0,0,0,3.375,3.411,13.575,13.575,0,0,0,9.219,3.032ZM119.267.1a11.308,11.308,0,0,1,4.585.966,13.078,13.078,0,0,1,3.876,2.543,12.2,12.2,0,0,1,2.653,3.754A10.408,10.408,0,0,1,131.4,11.8V29.032h-3.583V17.2H108.226v7.789a8.488,8.488,0,0,1-1.773-.293,6.772,6.772,0,0,1-1.773-.636V11.8a10.758,10.758,0,0,1,1.663-5.771,12.485,12.485,0,0,1,4.463-4.316,11.837,11.837,0,0,1,6-1.626h2.445ZM108.238,15.863h19.588V11.486a10.348,10.348,0,0,0-2.91-7.116,8.965,8.965,0,0,0-6.7-2.91h-.379a8.855,8.855,0,0,0-6.652,2.91,10.348,10.348,0,0,0-2.91,7.116l-.037,4.377Z" transform="translate(-37.908 0.02)" fill="#ffffff"/>
  </g>
  <g id="Group_339" data-name="Group 339" transform="translate(0 0.061)">
    <path id="Path_1770" data-name="Path 1770" d="M37.378,42.478H35.006l-21.177.22L0,28.955V.05H.012C.171.258,3.473,5,6.224,8.976a21.05,21.05,0,0,1,3.742,11.97v9.635h7.263a21.016,21.016,0,0,1,15.48,6.811l4.671,5.1Z" transform="translate(0 -0.05)" fill="#ffffff"/>
    <path id="Path_1771" data-name="Path 1771" d="M42.392,35.937l.269-22.07L28.917.05H0c.208.183,4.267,3.411,7.9,6.3A21.246,21.246,0,0,0,20.97,10.908h9.659v5.5a21.009,21.009,0,0,0,7.764,16.311c2.176,1.773,3.974,3.216,3.986,3.2Z" transform="translate(0 -0.05)" fill="#ffffff"/>
  </g>
  <g id="Group_342" data-name="Group 342" transform="translate(55.499 36.241)">
    <g id="Group_340" data-name="Group 340" transform="translate(0 0.024)">
      <path id="Path_1772" data-name="Path 1772" d="M45.39,35.988V29.74H49.2v.783H46.246v1.956h2.666v.746H46.246v1.981H49.2v.783H45.39Z" transform="translate(-45.39 -29.642)" fill="#ffffff"/>
      <path id="Path_1773" data-name="Path 1773" d="M49.21,29.74h1.015l.978,1.394a7.92,7.92,0,0,1,.66,1.1l1.651-2.494h.978L52.4,32.858l2.115,3.13h-1l-.954-1.369c-.245-.355-.477-.734-.685-1.1L50.2,35.988h-.99l2.14-3.118-2.128-3.13Z" transform="translate(-44.539 -29.642)" fill="#ffffff"/>
      <path id="Path_1774" data-name="Path 1774" d="M55.264,33.763v2.225H54.42V29.74h2.433a2.011,2.011,0,1,1,0,4.023H55.276Zm0-3.265v2.494h1.394a1.177,1.177,0,0,0,1.308-1.259A1.154,1.154,0,0,0,56.694,30.5Z" transform="translate(-43.379 -29.642)" fill="#ffffff"/>
      <path id="Path_1775" data-name="Path 1775" d="M59.854,35.206H62.6v.783H59.01V29.74h.844Z" transform="translate(-42.357 -29.642)" fill="#ffffff"/>
      <path id="Path_1776" data-name="Path 1776" d="M65.3,36.116a2.979,2.979,0,0,1-2.983-3.228,3.01,3.01,0,1,1,6,0A3,3,0,0,1,65.3,36.116Zm.012-5.649a2.135,2.135,0,0,0-2.1,2.409,2.129,2.129,0,1,0,4.218,0,2.15,2.15,0,0,0-2.115-2.409Z" transform="translate(-41.619 -29.66)" fill="#ffffff"/>
      <path id="Path_1777" data-name="Path 1777" d="M68.29,35.988V29.74h2.36c1.345,0,2.14.709,2.14,1.871a1.691,1.691,0,0,1-1.21,1.736l1.272,2.629h-.941l-1.162-2.47h-1.6v2.47H68.3Zm.844-3.216H70.65a1.136,1.136,0,1,0-.012-2.262H69.121v2.262Z" transform="translate(-40.29 -29.642)" fill="#ffffff"/>
      <path id="Path_1778" data-name="Path 1778" d="M73.08,35.988V29.74h3.815v.783H73.936v1.956H76.6v.746H73.936v1.981h2.959v.783H73.08Z" transform="translate(-39.223 -29.642)" fill="#ffffff"/>
    </g>
    <g id="Group_341" data-name="Group 341" transform="translate(40.129)">
      <path id="Path_1779" data-name="Path 1779" d="M78.21,29.74h4.61v.783H80.949v5.466h-.844V30.523H78.222V29.74Z" transform="translate(-78.21 -29.618)" fill="#ffffff"/>
      <path id="Path_1780" data-name="Path 1780" d="M82.85,35.988V29.74h.844v2.69h3.093V29.74h.844v6.248h-.844V33.213H83.694v2.776Z" transform="translate(-77.177 -29.618)" fill="#ffffff"/>
      <path id="Path_1781" data-name="Path 1781" d="M88.13,35.988V29.74h3.815v.783H88.986v1.956h2.666v.746H88.986v1.981h2.959v.783H88.13Z" transform="translate(-76.001 -29.618)" fill="#ffffff"/>
      <path id="Path_1782" data-name="Path 1782" d="M94.492,29.74h.844v3.974a1.535,1.535,0,1,0,3.069,0V29.74h.856v4.023a2.391,2.391,0,0,1-4.781,0V29.74Z" transform="translate(-74.586 -29.618)" fill="#ffffff"/>
      <path id="Path_1783" data-name="Path 1783" d="M99.73,35.988V29.74h.844l3.191,4.83V29.74h.844v6.248h-.844l-3.191-4.83v4.83Z" transform="translate(-73.417 -29.618)" fill="#ffffff"/>
      <path id="Path_1784" data-name="Path 1784" d="M106.9,29.652a1.832,1.832,0,0,1,2.03,1.748h-.856a1.056,1.056,0,0,0-1.186-.99c-.783,0-1.3.391-1.3,1.015,0,.5.281.807.868.941l1.027.245c1.015.232,1.541.783,1.541,1.663,0,1.125-.868,1.834-2.2,1.834s-2.115-.66-2.164-1.736h.868c.012.6.514.978,1.308.978.831,0,1.357-.391,1.357-1.015,0-.489-.269-.807-.868-.941l-1.027-.232a1.7,1.7,0,0,1-1.541-1.724c0-1.076.868-1.8,2.152-1.8Z" transform="translate(-72.319 -29.64)" fill="#ffffff"/>
      <path id="Path_1785" data-name="Path 1785" d="M109.28,35.988V29.74h3.815v.783h-2.959v1.956H112.8v.746h-2.666v1.981h2.959v.783H109.28Z" transform="translate(-71.29 -29.618)" fill="#ffffff"/>
      <path id="Path_1786" data-name="Path 1786" d="M113.58,35.988V29.74h3.815v.783h-2.959v1.956H117.1v.746h-2.666v1.981h2.959v.783H113.58Z" transform="translate(-70.333 -29.618)" fill="#ffffff"/>
      <path id="Path_1787" data-name="Path 1787" d="M117.87,35.988V29.74h.844l3.191,4.83V29.74h.844v6.248H121.9l-3.191-4.83v4.83Z" transform="translate(-69.377 -29.618)" fill="#ffffff"/>
    </g>
  </g>
</svg>