<svg id="adventure-icon" xmlns="http://www.w3.org/2000/svg" width="23.775" height="23.775" viewBox="0 0 23.775 23.775">
  <path id="Path_1604" data-name="Path 1604" d="M23.813,13.906A9.906,9.906,0,1,1,13.906,4,9.9,9.9,0,0,1,23.813,13.906Z" transform="translate(-2.019 -2.019)" fill="none" stroke="#154046" stroke-linecap="round" stroke-linejoin="round" stroke-width="1"/>
  <path id="Path_1605" data-name="Path 1605" d="M4,24H23.813" transform="translate(-2.019 -12.112)" fill="none" stroke="#154046" stroke-linecap="round" stroke-linejoin="round" stroke-width="1"/>
  <path id="Path_1606" data-name="Path 1606" d="M19.963,4a15.151,15.151,0,0,1,3.963,9.906,15.151,15.151,0,0,1-3.963,9.906A15.151,15.151,0,0,1,16,13.906,15.151,15.151,0,0,1,19.963,4Z" transform="translate(-8.075 -2.019)" fill="none" stroke="#154046" stroke-linecap="round" stroke-linejoin="round" stroke-width="1"/>
  <path id="Path_1607" data-name="Path 1607" d="M0,0H23.775V23.775H0Z" fill="none"/>
</svg>
