<svg id="c-call" xmlns="http://www.w3.org/2000/svg" width="15.432" height="15.432" viewBox="0 0 15.432 15.432">
  <path id="Path_1762" data-name="Path 1762" d="M12.543,4.572a3.212,3.212,0,0,1,2.54,2.54M12.543,2a5.787,5.787,0,0,1,5.112,5.105m-.643,5.131v1.929a1.29,1.29,0,0,1-1.4,1.286,12.723,12.723,0,0,1-5.549-1.974A12.55,12.55,0,0,1,6.2,9.619,12.745,12.745,0,0,1,4.229,4.045a1.285,1.285,0,0,1,1.28-1.4H7.438A1.285,1.285,0,0,1,8.724,3.749a8.126,8.126,0,0,0,.45,1.807,1.285,1.285,0,0,1-.289,1.357l-.817.817a10.288,10.288,0,0,0,3.858,3.858l.817-.817a1.285,1.285,0,0,1,1.357-.289,8.126,8.126,0,0,0,1.807.45A1.286,1.286,0,0,1,17.012,12.236Z" transform="translate(-2.866 -1.357)" fill="none" stroke="#154046" stroke-linecap="round" stroke-linejoin="round" stroke-width="1"/>
  <path id="Path_1763" data-name="Path 1763" d="M0,0H15.432V15.432H0Z" fill="none"/>
</svg>
