<svg id="gallery-icon" xmlns="http://www.w3.org/2000/svg" width="18.078" height="18.078" viewBox="0 0 18.078 18.078">
  <path id="Path_1625" data-name="Path 1625" d="M7.507,6H18.052a1.506,1.506,0,0,1,1.507,1.507V18.052a1.506,1.506,0,0,1-1.507,1.507H7.507A1.506,1.506,0,0,1,6,18.052V7.507A1.506,1.506,0,0,1,7.507,6Z" transform="translate(-3.74 -3.74)" fill="none" stroke="#fff" stroke-linecap="round" stroke-linejoin="round" stroke-width="1"/>
  <path id="Path_1626" data-name="Path 1626" d="M16.26,15.13A1.13,1.13,0,1,1,15.13,14,1.128,1.128,0,0,1,16.26,15.13Z" transform="translate(-8.727 -8.727)" fill="none" stroke="#fff" stroke-linecap="round" stroke-linejoin="round" stroke-width="1"/>
  <path id="Path_1627" data-name="Path 1627" d="M22.052,23.766,18.286,20,10,28.286" transform="translate(-6.234 -12.467)" fill="none" stroke="#fff" stroke-linecap="round" stroke-linejoin="round" stroke-width="1"/>
  <path id="Path_1628" data-name="Path 1628" d="M0,0H18.078V18.078H0Z" fill="none"/>
</svg>
