<svg id="group-icon" xmlns="http://www.w3.org/2000/svg" width="23.775" height="23.775" viewBox="0 0 23.775 23.775">
  <path id="Path_1608" data-name="Path 1608" d="M17.85,35.944V33.963A3.961,3.961,0,0,0,13.888,30H5.963A3.961,3.961,0,0,0,2,33.963v1.981" transform="translate(-1.009 -15.14)" fill="none" stroke="#154046" stroke-linecap="round" stroke-linejoin="round" stroke-width="1"/>
  <path id="Path_1609" data-name="Path 1609" d="M17.925,9.963A3.963,3.963,0,1,1,13.963,6,3.961,3.961,0,0,1,17.925,9.963Z" transform="translate(-5.047 -3.028)" fill="none" stroke="#154046" stroke-linecap="round" stroke-linejoin="round" stroke-width="1"/>
  <path id="Path_1610" data-name="Path 1610" d="M42.972,36.075V34.094A3.959,3.959,0,0,0,40,30.26" transform="translate(-20.187 -15.272)" fill="none" stroke="#154046" stroke-linecap="round" stroke-linejoin="round" stroke-width="1"/>
  <path id="Path_1611" data-name="Path 1611" d="M32,6.26a3.962,3.962,0,0,1,0,7.677" transform="translate(-16.15 -3.159)" fill="none" stroke="#154046" stroke-linecap="round" stroke-linejoin="round" stroke-width="1"/>
  <path id="Path_1612" data-name="Path 1612" d="M0,0H23.775V23.775H0Z" fill="none"/>
</svg>
