<svg id="icon-img5" xmlns="http://www.w3.org/2000/svg" width="19.312" height="19.312" viewBox="0 0 19.312 19.312">
  <path id="Path_1596" data-name="Path 1596" d="M14.634,5.219A4.019,4.019,0,0,1,17.813,8.4M14.634,2a7.242,7.242,0,0,1,6.4,6.389m-.8,6.421v2.414a1.614,1.614,0,0,1-1.754,1.609,15.922,15.922,0,0,1-6.944-2.47A15.705,15.705,0,0,1,6.7,11.535,15.95,15.95,0,0,1,4.23,4.559,1.608,1.608,0,0,1,5.832,2.8H8.246A1.608,1.608,0,0,1,9.855,4.189a10.169,10.169,0,0,0,.563,2.261,1.608,1.608,0,0,1-.362,1.7L9.034,9.169A12.874,12.874,0,0,0,13.862,14l1.022-1.022a1.608,1.608,0,0,1,1.7-.362,10.169,10.169,0,0,0,2.261.563A1.609,1.609,0,0,1,20.227,14.81Z" transform="translate(-2.525 -1.195)" fill="none" stroke="#c9a887" stroke-linecap="round" stroke-linejoin="round" stroke-width="1"/>
  <path id="Path_1597" data-name="Path 1597" d="M0,0H19.312V19.312H0Z" fill="none"/>
</svg>
