<svg xmlns="http://www.w3.org/2000/svg" width="13.627" height="19.67" viewBox="0 0 13.627 19.67">
  <g id="icon-img2" transform="translate(0.007 0.002)">
    <path id="Path_1312" data-name="Path 1312" d="M6.922,14.967a.51.51,0,0,0-.484.392c-.336,1.007-.668,2.017-1.017,3.023a2.3,2.3,0,0,1-.314.6.663.663,0,0,1-.371.24c-.272.049-.357.219-.4.452q-.5,2.411-1.01,4.825c-.071.332-.138.664-.208.992-.06.272-.148.311-.413.208a2.323,2.323,0,0,0-.452-.145,1.111,1.111,0,0,0-1.187.576c-.233.364-.427.389-.756.092a.872.872,0,0,1-.293-.862c.283-1.4.565-2.787.858-4.178a.961.961,0,0,1,1.247-.8c.466.092.932.191,1.4.286.053.011.106.014.184.025.1-.47.194-.925.275-1.385a.325.325,0,0,0-.113-.226A.984.984,0,0,1,3.6,17.927q.609-1.791,1.215-3.588a1.441,1.441,0,0,1,.791-.883c.869-.406,1.734-.819,2.607-1.226a1.356,1.356,0,0,1,1.734.357,1.3,1.3,0,0,1,.244.982c-.194,1.738-.4,3.475-.593,5.21a.839.839,0,0,0,.272.749c.42.389.837.788,1.272,1.158a1.9,1.9,0,0,1,.682,1.392c.085,1.388.159,2.776.251,4.161a1.063,1.063,0,0,1-1.508,1.127.789.789,0,0,1-.53-.643c-.071-.611-.117-1.222-.162-1.837-.053-.738-.092-1.476-.138-2.215a.845.845,0,0,0-.286-.6c-.731-.668-1.434-1.363-2.19-2a1.937,1.937,0,0,1-.706-1.95c.152-.961.244-1.932.36-2.9a2.2,2.2,0,0,0,0-.265Z" transform="translate(0 -7.805)" fill="#c9a887"/>
    <path id="Path_1313" data-name="Path 1313" d="M15.377,34.754c.445.41.848.819,1.3,1.173a.766.766,0,0,1,.279.971c-.463,1.48-.872,2.977-1.307,4.468a1.045,1.045,0,1,1-2.01-.576c.378-1.342.766-2.677,1.155-4.016.191-.664.385-1.324.586-2.024Z" transform="translate(-8.795 -22.477)" fill="#c9a887"/>
    <path id="Path_1314" data-name="Path 1314" d="M23.465,0A1.866,1.866,0,0,1,25.33,1.917a1.9,1.9,0,1,1-3.8-.071A1.865,1.865,0,0,1,23.465,0Z" transform="translate(-13.929 0)" fill="#c9a887"/>
    <path id="Path_1315" data-name="Path 1315" d="M29.543,18.96c.5.456.992.9,1.483,1.346.417.381.841.763,1.243,1.158a.926.926,0,1,1-1.254,1.363c-.537-.473-1.063-.964-1.586-1.459a.441.441,0,0,1-.131-.3c.06-.668.138-1.332.212-2a.48.48,0,0,1,.035-.109Z" transform="translate(-18.955 -12.264)" fill="#c9a887"/>
    <path id="Path_1316" data-name="Path 1316" d="M3.87,52.223a.709.709,0,0,1,.749-.713A.733.733,0,0,1,4.6,52.976a.7.7,0,0,1-.731-.749Z" transform="translate(-2.507 -33.318)" fill="#c9a887"/>
  </g>
</svg>
