<svg id="icon-img6" xmlns="http://www.w3.org/2000/svg" width="24" height="24" viewBox="0 0 24 24">
  <path id="Path_1757" data-name="Path 1757" d="M9.165,11.34,8.015,9.86A2.394,2.394,0,0,1,9.91,6a2.369,2.369,0,0,1,1.35.42l3.15,2.16a8.525,8.525,0,0,1,1.37-1.43A4.682,4.682,0,0,1,18.755,6c2.315.015,3.985,1.82,4.865,3.035a2.045,2.045,0,0,1-1.04,3.11l-3.35,1.23-4.66,6.72a2.25,2.25,0,0,1-4.045-1.77l.47-2.115-4.66,1.315A2.623,2.623,0,0,1,3,15V10.74a1.711,1.711,0,0,1,3.25-.745l.905,1.875ZM9.2,8.94l1.54,1.985,1.565-.41a2.7,2.7,0,0,0,1.2-.735l-3.1-2.125A.911.911,0,0,0,9.91,7.5.894.894,0,0,0,9.2,8.94ZM15.2,10.05a4.434,4.434,0,0,1-2.52,1.915L6.94,13.475a.749.749,0,0,1-.865-.4L4.9,10.65a.183.183,0,0,0-.1-.1.242.242,0,0,0-.26.06.212.212,0,0,0-.04.135V15a1.122,1.122,0,0,0,1.43,1.08l4.66-1.31a1.5,1.5,0,0,1,1.87,1.77l-.47,2.11a.751.751,0,0,0,1.35.59l4.8-6.915a.727.727,0,0,1,.355-.28l3.575-1.31a.656.656,0,0,0,.4-.38.446.446,0,0,0-.065-.44c-.84-1.17-2.12-2.4-3.655-2.415a3.181,3.181,0,0,0-2.02.815A7.731,7.731,0,0,0,15.2,10.05ZM3.75,24a.75.75,0,0,0,0,1.5h19.5a.75.75,0,0,0,0-1.5Z" transform="translate(-1.5 -3)" fill="#c9a887"/>
  <path id="Path_1758" data-name="Path 1758" d="M0,0H24V24H0Z" fill="none"/>
</svg>
