<svg id="instagram-icon" xmlns="http://www.w3.org/2000/svg" width="16.937" height="16.937" viewBox="0 0 16.937 16.937">
  <path id="Path_1303" data-name="Path 1303" d="M11.889,0H5.043A5.053,5.053,0,0,0,0,5.047v6.846a5.053,5.053,0,0,0,5.047,5.043h6.846a5.053,5.053,0,0,0,5.043-5.047V5.043A5.053,5.053,0,0,0,11.889,0Zm3.342,11.889a3.338,3.338,0,0,1-3.342,3.342H5.043a3.337,3.337,0,0,1-3.338-3.342V5.043A3.337,3.337,0,0,1,5.047,1.705h6.846a3.337,3.337,0,0,1,3.338,3.342v6.846Z" fill="#154046"/>
  <path id="Path_1304" data-name="Path 1304" d="M14.017,9.64A4.379,4.379,0,1,0,18.4,14.017,4.388,4.388,0,0,0,14.017,9.64Zm0,7.058a2.676,2.676,0,1,1,2.676-2.676A2.679,2.679,0,0,1,14.017,16.7Z" transform="translate(-5.551 -5.551)" fill="#154046"/>
  <path id="Path_1305" data-name="Path 1305" d="M29.94,8.292A1.05,1.05,0,1,1,28.888,7.24,1.051,1.051,0,0,1,29.94,8.292Z" transform="translate(-16.031 -4.169)" fill="#154046"/>
  <path id="Path_1306" data-name="Path 1306" d="M0,0H16.937V16.937H0Z" fill="none"/>
</svg>
