<svg id="linkdin-icon" xmlns="http://www.w3.org/2000/svg" width="17.25" height="17.25" viewBox="0 0 17.25 17.25">
  <path id="Path_1307" data-name="Path 1307" d="M17.25,10.157v6.378h-3.7v-5.95c0-1.5-.536-2.515-1.871-2.515a2.02,2.02,0,0,0-1.9,1.353,2.471,2.471,0,0,0-.125.9v6.214h-3.7s.052-10.077,0-11.123h3.7V6.99l-.022.035h.022V6.99a3.679,3.679,0,0,1,3.336-1.841C15.426,5.149,17.25,6.739,17.25,10.157ZM2.091.05A1.928,1.928,0,1,0,2.044,3.9H2.07A1.929,1.929,0,1,0,2.091.05ZM.22,16.535H3.915V5.413H.22Z" transform="translate(0 -0.032)" fill="#154046"/>
  <path id="Path_1308" data-name="Path 1308" d="M0,0H17.25V17.25H0Z" fill="none"/>
</svg>
