<svg xmlns="http://www.w3.org/2000/svg" width="22.639" height="22.68" viewBox="0 0 22.639 22.68">
  <g id="phone-icon" transform="translate(0.173 0.287)">
    <path id="Path_1770" data-name="Path 1770" d="M17.333,6.053a5.061,5.061,0,0,1,4,4M17.333,2a9.119,9.119,0,0,1,8.055,8.045m-1.013,8.086v3.04A2.032,2.032,0,0,1,22.166,23.2a20.05,20.05,0,0,1-8.744-3.111,19.776,19.776,0,0,1-6.079-6.079A20.084,20.084,0,0,1,4.232,5.222,2.025,2.025,0,0,1,6.248,3.013h3.04a2.024,2.024,0,0,1,2.026,1.743A12.805,12.805,0,0,0,12.024,7.6a2.024,2.024,0,0,1-.456,2.138l-1.287,1.287a16.212,16.212,0,0,0,6.079,6.079l1.287-1.287a2.024,2.024,0,0,1,2.138-.456,12.805,12.805,0,0,0,2.847.709A2.026,2.026,0,0,1,24.375,18.131Z" transform="translate(-3.697 -1.514)" fill="none" stroke="#c9a887" stroke-linecap="round" stroke-linejoin="round" stroke-width="1.4"/>
    <path id="Path_1771" data-name="Path 1771" d="M0,0H22.326V22.326H0Z" fill="none"/>
  </g>
</svg>
