<svg id="whatsapp-icon" xmlns="http://www.w3.org/2000/svg" width="27.856" height="27.856" viewBox="0 0 27.856 27.856">
  <g id="Group_343" data-name="Group 343" transform="translate(0.165 0)">
    <path id="Path_1768" data-name="Path 1768" d="M28.348,8.56A13.727,13.727,0,0,0,6.742,25.121L4.8,32.245l7.274-1.906A13.693,13.693,0,0,0,18.631,32h0A13.743,13.743,0,0,0,28.348,8.56Zm-9.7,21.119h0A11.468,11.468,0,0,1,12.833,28.1l-.416-.244L8.1,28.977l1.154-4.214-.279-.43A11.421,11.421,0,0,1,18.66,6.862,11.426,11.426,0,0,1,30.068,18.278,11.435,11.435,0,0,1,18.645,29.679Zm6.263-8.528c-.344-.172-2.035-1-2.343-1.118s-.552-.172-.774.172-.9,1.118-1.082,1.34c-.208.222-.394.258-.738.086a9.25,9.25,0,0,1-2.752-1.7,10.621,10.621,0,0,1-1.928-2.379c-.208-.344-.014-.53.158-.7.15-.158.344-.394.516-.6a2.916,2.916,0,0,0,.344-.566.633.633,0,0,0-.036-.6c-.086-.172-.774-1.856-1.053-2.544s-.566-.588-.774-.6h-.666a1.251,1.251,0,0,0-.91.43,3.826,3.826,0,0,0-1.2,2.852,6.636,6.636,0,0,0,1.39,3.54,15.3,15.3,0,0,0,5.862,5.181,19.31,19.31,0,0,0,1.964.724,4.788,4.788,0,0,0,2.164.136,3.552,3.552,0,0,0,2.322-1.634,2.837,2.837,0,0,0,.208-1.634A1.854,1.854,0,0,0,24.909,21.151Z" transform="translate(-4.8 -4.54)" fill="#fff"/>
  </g>
  <path id="Path_1769" data-name="Path 1769" d="M0,0H27.856V27.856H0Z" transform="translate(0 0)" fill="none"/>
</svg>
