<svg id="youtube-icon" xmlns="http://www.w3.org/2000/svg" xmlns:xlink="http://www.w3.org/1999/xlink" width="18.756" height="18.756" viewBox="0 0 18.756 18.756">
  <defs>
    <clipPath id="clip-path">
      <path id="Path_1599" data-name="Path 1599" d="M0,0H18.756V18.756H0Z" fill="#154046"/>
    </clipPath>
  </defs>
  <g id="Group_202" data-name="Group 202" clip-path="url(#clip-path)">
    <path id="Path_1598" data-name="Path 1598" d="M18.365,9.952a2.193,2.193,0,0,0-.6-.992,2.423,2.423,0,0,0-1.047-.578,57.055,57.055,0,0,0-7.346-.387,59.746,59.746,0,0,0-7.338.367,2.493,2.493,0,0,0-1.047.594,2.256,2.256,0,0,0-.606,1A22.65,22.65,0,0,0,0,14.246,22.65,22.65,0,0,0,.382,18.54a2.175,2.175,0,0,0,.606.992,2.423,2.423,0,0,0,1.047.578,57.1,57.1,0,0,0,7.338.387,59.911,59.911,0,0,0,7.346-.367,2.383,2.383,0,0,0,1.047-.578,2.214,2.214,0,0,0,.6-.992,22.342,22.342,0,0,0,.391-4.294A20.781,20.781,0,0,0,18.365,9.952ZM7.506,16.923V11.569L12.4,14.246Z" transform="translate(0.001 -4.868)" fill="#154046"/>
  </g>
  <path id="Path_1600" data-name="Path 1600" d="M0,0H18.756V18.756H0Z" fill="none"/>
</svg>
